<?xml version="1.0" standalone="no"?>
<!DOCTYPE svg PUBLIC "-//W3C//DTD SVG 20010904//EN"
 "http://www.w3.org/TR/2001/REC-SVG-20010904/DTD/svg10.dtd">
<svg version="1.0" xmlns="http://www.w3.org/2000/svg"
 width="175.000000pt" height="175.000000pt" viewBox="0 0 175.000000 175.000000"
 preserveAspectRatio="xMidYMid meet">
<metadata>
Created by potrace 1.11, written by Peter Selinger 2001-2013
</metadata>
<g transform="translate(0.000000,175.000000) scale(0.100000,-0.100000)"
fill="#000000" stroke="none">
<path d="M925 1348 c-2 -7 -8 -29 -13 -48 l-8 -35 -100 -1 c-111 -1 -239 18
-286 42 -29 15 -31 15 -24 -2 31 -80 36 -205 11 -253 -8 -17 -15 -31 -15 -33
0 -2 73 -3 163 -4 89 0 174 -4 188 -7 l26 -7 -13 -67 c-7 -38 -15 -93 -19
-123 -9 -69 -42 -145 -69 -159 -63 -31 -137 -3 -135 52 0 22 0 22 10 -2 13
-32 38 -50 70 -51 36 0 79 36 79 66 0 62 -88 87 -136 39 -22 -22 -31 -25 -67
-20 -23 4 -44 8 -48 11 -3 2 -11 -8 -17 -22 -23 -48 -107 -60 -148 -19 -24 24
-27 56 -9 86 4 6 -6 24 -23 40 -37 36 -52 76 -41 107 7 19 12 21 28 12 11 -5
22 -10 25 -10 13 0 36 34 36 53 0 15 -3 18 -11 10 -11 -11 -49 -6 -49 7 0 4 9
10 20 13 14 3 18 10 14 21 -4 11 -10 13 -18 7 -6 -4 -20 -5 -31 0 -19 7 -19 8
2 8 12 1 27 9 32 19 9 16 6 18 -22 16 -18 -2 -24 -1 -14 2 29 9 19 21 -16 18
-17 -2 -24 -1 -15 2 10 3 15 11 11 20 -5 13 -8 13 -22 1 -26 -23 -50 -27 -58
-12 -6 10 -13 11 -23 5 -10 -7 -11 -10 -2 -10 24 0 11 -16 -15 -18 -16 -1 -29
-6 -31 -10 -12 -37 -40 -77 -54 -77 -9 0 -20 -4 -24 -8 -4 -4 -2 -7 4 -7 7 0
12 -9 12 -21 0 -26 22 -20 35 9 13 29 25 28 18 0 -5 -22 -5 -22 9 -5 7 10 20
17 28 15 11 -2 14 5 12 24 -4 36 22 28 44 -15 14 -26 14 -40 3 -108 -33 -207
64 -320 296 -345 33 -3 65 -10 71 -15 6 -5 24 -38 40 -74 16 -35 35 -65 42
-65 20 0 14 28 -17 85 l-29 53 141 -3 142 -3 44 -76 c23 -42 49 -76 57 -76 22
0 17 21 -22 82 -20 31 -36 60 -35 64 0 4 13 9 28 10 82 8 132 16 168 24 46 11
37 18 108 -95 44 -69 65 -86 74 -59 2 5 -21 43 -51 84 -30 41 -52 78 -50 82 2
4 30 14 61 23 184 54 317 184 331 324 8 86 -38 202 -100 250 -66 53 -175 43
-211 -18 -40 -68 0 -141 77 -141 33 0 76 37 76 66 0 30 -5 30 -42 -1 -34 -29
-50 -31 -68 -10 -17 21 1 61 34 76 77 35 178 -85 147 -173 -15 -43 -76 -114
-132 -155 -44 -32 -47 -36 -37 -59 17 -37 -3 -71 -51 -84 -52 -14 -112 11
-110 45 0 6 3 4 6 -3 8 -21 61 -43 88 -36 14 3 34 17 44 31 43 54 -24 119 -96
92 -13 -5 -30 -24 -38 -41 -8 -18 -14 -28 -15 -22 0 7 -18 8 -52 4 -29 -4 -55
-7 -58 -6 -3 1 -5 -12 -6 -27 -1 -38 -31 -66 -74 -71 -52 -6 -99 25 -100 67 0
10 -8 17 -21 17 -20 0 -20 4 -14 68 8 90 24 205 30 210 7 7 147 -20 210 -40
33 -11 74 -31 92 -44 l31 -24 0 123 c0 122 10 189 37 253 8 19 11 34 7 34 -4
0 -36 -4 -72 -10 -50 -6 -215 -21 -250 -22 -28 -1 -30 4 -24 47 5 42 -1 61
-11 33z m-317 -145 c-14 -28 -18 -51 -15 -87 3 -35 2 -44 -5 -31 -15 26 -4
112 17 135 25 28 26 25 3 -17z m127 -16 c-22 -45 -24 -61 -10 -122 3 -11 -2
-4 -11 15 -19 40 -13 81 18 127 31 44 32 36 3 -20z m137 19 c-28 -47 -33 -92
-18 -137 8 -21 10 -36 6 -34 -16 10 -32 78 -27 111 5 31 41 94 54 94 3 0 -4
-15 -15 -34z m133 -21 c-30 -59 -31 -84 -4 -136 11 -23 15 -38 9 -34 -21 13
-50 90 -44 119 4 26 53 110 60 103 2 -2 -8 -25 -21 -52z m152 4 c-36 -58 -44
-126 -20 -172 8 -16 12 -31 9 -34 -9 -10 -36 57 -40 99 -3 48 13 89 52 131 14
15 27 27 28 27 2 0 -11 -23 -29 -51z m163 -449 c0 -13 -32 -28 -47 -23 -7 3
-13 13 -13 23 0 10 6 20 13 23 15 5 47 -10 47 -23z m-585 -25 c0 -23 -34 -33
-45 -14 -13 20 1 40 24 37 13 -2 21 -10 21 -23z m449 -81 c21 -31 35 -58 32
-61 -9 -9 -31 14 -64 67 -44 70 -15 65 32 -6z m-617 29 c4 -10 19 -39 34 -65
21 -36 24 -48 14 -52 -9 -3 -24 17 -44 61 -35 74 -35 73 -21 73 6 0 14 -8 17
-17z m333 -64 c46 -69 47 -74 21 -59 -17 9 -81 107 -81 124 0 16 23 -9 60 -65z"/>
<path d="M403 810 c-66 -27 -37 -120 37 -120 64 0 96 66 52 106 -26 25 -52 29
-89 14z m61 -47 c10 -26 -35 -46 -49 -23 -11 17 3 40 24 40 10 0 22 -8 25 -17z"/>
<path d="M955 768 c-27 -15 -35 -28 -35 -60 0 -32 36 -60 75 -60 39 0 75 28
75 60 0 33 -8 45 -37 61 -27 14 -52 14 -78 -1z m64 -47 c12 -22 5 -31 -25 -31
-30 0 -38 15 -18 34 20 21 31 20 43 -3z"/>
</g>
</svg>
